<svg width="32" height="32" viewBox="0 0 32 32" fill="none" xmlns="http://www.w3.org/2000/svg">
<rect width="32" height="32" fill="black"/>
<path d="M21.891 16.74L26.25 19.1667V9.72222L21.891 12.0833V16.74Z" fill="white"/>
<path d="M13.4455 9.72222V16.74L17.7364 19.1667V21.4622L21.891 23.9545V19.1667L17.7364 16.74V7.4267L13.4455 9.72222Z" fill="white"/>
<path d="M5 7.29552V16.74L9.29087 19.1667V23.9545L13.4455 26.25V19.1667L9.29087 16.74V5L5 7.29552Z" fill="white"/>
<path d="M21.891 16.74L26.25 19.1667V9.72222L21.891 12.0833V16.74Z" stroke="white"/>
<path d="M13.4455 9.72222V16.74L17.7364 19.1667V21.4622L21.891 23.9545V19.1667L17.7364 16.74V7.4267L13.4455 9.72222Z" stroke="white"/>
<path d="M5 7.29552V16.74L9.29087 19.1667V23.9545L13.4455 26.25V19.1667L9.29087 16.74V5L5 7.29552Z" stroke="white"/>
</svg>
